<svg width="72" height="48" viewBox="0 0 72 48" fill="none" xmlns="http://www.w3.org/2000/svg">
<path d="M30 39L19.5 28.5L23.73 24.24L30 30.51L45.54 15L49.77 19.23L30 39ZM58.05 18.09C57.0362 12.9887 54.2841 8.39704 50.263 5.09815C46.242 1.79926 41.2011 -0.00254868 36 2.70587e-06C27.33 2.70587e-06 19.8 4.92 16.05 12.09C11.6382 12.5735 7.56012 14.6688 4.59812 17.974C1.63612 21.2793 -0.00127479 25.5617 7.44665e-07 30C7.44665e-07 34.7739 1.89642 39.3523 5.27208 42.7279C8.64773 46.1036 13.2261 48 18 48H57C58.9698 48 60.9204 47.612 62.7403 46.8582C64.5601 46.1044 66.2137 44.9995 67.6066 43.6066C68.9995 42.2137 70.1044 40.5601 70.8582 38.7403C71.612 36.9204 72 34.9698 72 33C72 25.08 65.85 18.66 58.05 18.09Z" fill="#34CE0D"/>
</svg>
