<svg width="20" height="21" viewBox="0 0 20 21" fill="none" xmlns="http://www.w3.org/2000/svg">
<path d="M10 0.039978C4.5 0.039978 0 4.54801 0 10.1002C0 15.1203 3.66 19.287 8.44 20.04V13.0119H5.9V10.1002H8.44V7.88134C8.44 5.36126 9.93 3.97572 12.22 3.97572C13.31 3.97572 14.45 4.16648 14.45 4.16648V6.6464H13.19C11.95 6.6464 11.56 7.4195 11.56 8.21267V10.1002H14.34L13.89 13.0119H11.56V20.04C13.9164 19.6663 16.0622 18.4592 17.6099 16.6364C19.1576 14.8137 20.0053 12.4954 20 10.1002C20 4.54801 15.5 0.039978 10 0.039978V0.039978Z" fill="#4075FF"/>
</svg>
