<svg width="20" height="16" viewBox="0 0 20 16" fill="none" xmlns="http://www.w3.org/2000/svg">
<path d="M0 7H1.67C2.08 5.83 3.19 5 4.5 5C5.29565 5 6.05871 5.31607 6.62132 5.87868C7.18393 6.44129 7.5 7.20435 7.5 8C7.5 8.65 7.29 9.25 6.94 9.74L8.07 11.35L11.11 0L12.61 2.13L14.7 5.11L15.5 5C16.81 5 17.92 5.83 18.33 7H20V9H18.33C18.1244 9.58597 17.7414 10.0934 17.2343 10.4518C16.7271 10.8102 16.121 11.0018 15.5 11C14.7044 11 13.9413 10.6839 13.3787 10.1213C12.8161 9.55871 12.5 8.79565 12.5 8C12.5 7.35 12.71 6.75 13.06 6.26L11.93 4.65L8.89 16L5.3 10.89C4.56805 11.0955 3.7853 11.0145 3.11098 10.6634C2.43665 10.3123 1.92139 9.71748 1.67 9H0V7ZM15.5 6.5C15.1022 6.5 14.7206 6.65804 14.4393 6.93934C14.158 7.22064 14 7.60218 14 8C14 8.39782 14.158 8.77936 14.4393 9.06066C14.7206 9.34196 15.1022 9.5 15.5 9.5C15.8978 9.5 16.2794 9.34196 16.5607 9.06066C16.842 8.77936 17 8.39782 17 8C17 7.60218 16.842 7.22064 16.5607 6.93934C16.2794 6.65804 15.8978 6.5 15.5 6.5ZM4.5 6.5C4.10218 6.5 3.72064 6.65804 3.43934 6.93934C3.15804 7.22064 3 7.60218 3 8C3 8.39782 3.15804 8.77936 3.43934 9.06066C3.72064 9.34196 4.10218 9.5 4.5 9.5C4.89782 9.5 5.27936 9.34196 5.56066 9.06066C5.84196 8.77936 6 8.39782 6 8C6 7.60218 5.84196 7.22064 5.56066 6.93934C5.27936 6.65804 4.89782 6.5 4.5 6.5Z" fill="#34CE0D"/>
</svg>
